# 3ds Max Wavefront OBJ Exporter v0.97b - (c)2007 guruware
# File Created: 27.04.2021 18:16:38

mtllib lestnitsa.mtl

#
# object Box010
#

v  66.0007 81.6393 68.6719
v  66.0007 81.6393 -70.2408
v  26.2563 81.6393 -70.2408
v  26.2563 81.6393 68.6719
v  66.0007 79.3487 68.6719
v  26.2563 79.3487 68.6719
v  26.2563 79.3487 -70.2408
v  66.0007 79.3487 -70.2408
# 8 vertices

vn 0.5774 0.5774 0.5774
vn 0.5774 0.5774 -0.5774
vn -0.5774 0.5774 -0.5774
vn -0.5774 0.5774 0.5774
vn 0.5774 -0.5774 0.5774
vn -0.5774 -0.5774 0.5774
vn -0.5774 -0.5774 -0.5774
vn 0.5774 -0.5774 -0.5774
# 8 vertex normals

vt 1.0000 0.0000 0.0000
vt 1.0000 1.0000 0.0000
vt 0.0000 1.0000 0.0000
vt 0.0000 0.0000 0.0000
# 4 texture coords

o Box010
g Box010
usemtl Material__28
s 2
f 1/1/1 2/2/2 3/3/3 4/4/4 
s 4
f 5/4/5 6/1/6 7/2/7 8/3/8 
s 8
f 1/4/1 4/1/4 6/2/6 5/3/5 
s 16
f 4/4/4 3/1/3 7/2/7 6/3/6 
s 32
f 3/4/3 2/1/2 8/2/8 7/3/7 
s 64
f 2/4/2 1/1/1 5/2/5 8/3/8 
# 6 polygons

#
# object Box008
#

v  -68.7663 0.3207 67.2362
v  -6.0924 0.3207 67.2362
v  -6.0924 0.3207 68.7925
v  -68.7663 0.3207 68.7925
v  64.0137 60.7003 67.2362
v  64.0137 60.7003 68.7925
v  64.0137 114.6788 68.7925
v  64.0137 114.6788 67.2362
# 8 vertices

vn -0.8279 -0.1544 -0.5392
vn 0.1360 -0.7315 -0.6682
vn 0.1359 -0.7314 0.6682
vn -0.8279 -0.1544 0.5392
vn 0.6600 -0.4531 -0.5992
vn 0.6600 -0.4532 0.5991
vn 0.4687 0.6829 0.5604
vn 0.4688 0.6827 -0.5605
# 8 vertex normals

vt 0.1969 0.7940 0.0000
vt 0.7997 0.7940 0.0000
vt 0.7997 0.7803 0.0000
vt 0.1969 0.7803 0.0000
vt 0.3140 0.0000 0.0000
vt 0.8065 -0.0000 0.0000
vt 0.8065 1.0000 0.0000
vt 0.3140 1.0000 0.0000
vt 0.9388 0.0000 0.0000
vt 0.9388 1.0000 0.0000
vt 0.0061 1.0000 0.0000
vt 0.0061 0.0000 0.0000
vt 0.6860 -0.0000 0.0000
vt 0.1935 -0.0000 0.0000
vt 0.3140 -0.0000 0.0000
vt 0.8065 0.0000 0.0000
vt 0.9939 1.0000 0.0000
vt 0.0612 1.0000 0.0000
vt 0.5187 0.1609 0.0000
vt 0.4994 0.1609 0.0000
vt 0.4994 0.9125 0.0000
vt 0.5187 0.9125 0.0000
# 22 texture coords

o Box008
g Box008
usemtl Material__27
s 1
f 9/5/9 10/6/10 11/7/11 12/8/12 
s 4
f 10/9/10 13/10/13 14/11/14 11/12/11 
f 9/13/9 12/14/12 15/15/15 16/16/16 
s 2
f 10/17/10 9/14/9 16/15/16 13/18/13 
f 11/19/11 14/20/14 15/21/15 12/22/12 
s 64
f 14/23/14 13/24/13 16/25/16 15/26/15 
# 6 polygons

#
# object Box009
#

v  63.8647 114.3199 68.2021
v  63.8647 114.3199 -70.7106
v  63.8647 60.9994 -70.7106
v  63.8647 60.9994 68.2021
v  66.1553 114.3199 68.2021
v  66.1553 60.9994 68.2021
v  66.1553 60.9994 -70.7106
v  66.1553 114.3199 -70.7106
# 8 vertices

vn -0.5774 0.5774 0.5774
vn -0.5774 0.5774 -0.5774
vn -0.5774 -0.5774 -0.5774
vn -0.5774 -0.5774 0.5774
vn 0.5774 0.5774 0.5774
vn 0.5774 -0.5774 0.5774
vn 0.5774 -0.5774 -0.5774
vn 0.5774 0.5774 -0.5774
# 8 vertex normals

vt 1.0000 0.0000 0.0000
vt 1.0000 1.0000 0.0000
vt 0.0000 1.0000 0.0000
vt 0.0000 0.0000 0.0000
# 4 texture coords

o Box009
g Box009
usemtl Material__27
s 2
f 17/27/17 18/28/18 19/29/19 20/30/20 
s 4
f 21/30/21 22/27/22 23/28/23 24/29/24 
s 8
f 17/30/17 20/27/20 22/28/22 21/29/21 
s 16
f 20/30/20 19/27/19 23/28/23 22/29/22 
s 32
f 19/30/19 18/27/18 24/28/24 23/29/23 
s 64
f 18/30/18 17/27/17 21/28/21 24/29/24 
# 6 polygons

#
# object Box011
#

v  25.9014 46.5208 68.6719
v  25.9014 46.5208 -70.2408
v  -13.8430 46.5208 -70.2408
v  -13.8430 46.5208 68.6719
v  25.9014 44.2303 68.6719
v  -13.8430 44.2303 68.6719
v  -13.8430 44.2303 -70.2408
v  25.9014 44.2303 -70.2408
# 8 vertices

vn 0.5774 0.5774 0.5774
vn 0.5774 0.5774 -0.5774
vn -0.5774 0.5774 -0.5774
vn -0.5774 0.5774 0.5774
vn 0.5774 -0.5774 0.5774
vn -0.5774 -0.5774 0.5774
vn -0.5774 -0.5774 -0.5774
vn 0.5774 -0.5774 -0.5774
# 8 vertex normals

vt 1.0000 0.0000 0.0000
vt 1.0000 1.0000 0.0000
vt 0.0000 1.0000 0.0000
vt 0.0000 0.0000 0.0000
# 4 texture coords

o Box011
g Box011
usemtl Material__28
s 2
f 25/31/25 26/32/26 27/33/27 28/34/28 
s 4
f 29/34/29 30/31/30 31/32/31 32/33/32 
s 8
f 25/34/25 28/31/28 30/32/30 29/33/29 
s 16
f 28/34/28 27/31/27 31/32/31 30/33/30 
s 32
f 27/34/27 26/31/26 32/32/32 31/33/31 
s 64
f 26/34/26 25/31/25 29/32/29 32/33/32 
# 6 polygons

#
# object Box012
#

v  -14.6748 11.7151 68.6719
v  -14.6748 11.7151 -70.2408
v  -54.4193 11.7151 -70.2408
v  -54.4193 11.7151 68.6719
v  -14.6748 9.4245 68.6719
v  -54.4193 9.4245 68.6719
v  -54.4193 9.4245 -70.2408
v  -14.6748 9.4245 -70.2408
# 8 vertices

vn 0.5774 0.5774 0.5774
vn 0.5774 0.5774 -0.5774
vn -0.5774 0.5774 -0.5774
vn -0.5774 0.5774 0.5774
vn 0.5774 -0.5774 0.5774
vn -0.5774 -0.5774 0.5774
vn -0.5774 -0.5774 -0.5774
vn 0.5774 -0.5774 -0.5774
# 8 vertex normals

vt 1.0000 0.0000 0.0000
vt 1.0000 1.0000 0.0000
vt 0.0000 1.0000 0.0000
vt 0.0000 0.0000 0.0000
# 4 texture coords

o Box012
g Box012
usemtl Material__28
s 2
f 33/35/33 34/36/34 35/37/35 36/38/36 
s 4
f 37/38/37 38/35/38 39/36/39 40/37/40 
s 8
f 33/38/33 36/35/36 38/36/38 37/37/37 
s 16
f 36/38/36 35/35/35 39/36/39 38/37/38 
s 32
f 35/38/35 34/35/34 40/36/40 39/37/39 
s 64
f 34/38/34 33/35/33 37/36/37 40/37/40 
# 6 polygons

#
# object Box007
#

v  -68.7663 0.3207 -70.0945
v  -6.0924 0.3207 -70.0945
v  -6.0924 0.3207 -68.5381
v  -68.7663 0.3207 -68.5381
v  64.0137 60.7003 -70.0945
v  64.0137 60.7003 -68.5381
v  64.0137 114.6788 -68.5381
v  64.0137 114.6788 -70.0945
# 8 vertices

vn -0.8279 -0.1544 -0.5392
vn 0.1360 -0.7315 -0.6682
vn 0.1359 -0.7314 0.6682
vn -0.8279 -0.1544 0.5392
vn 0.6600 -0.4531 -0.5992
vn 0.6600 -0.4532 0.5991
vn 0.4687 0.6829 0.5604
vn 0.4688 0.6827 -0.5605
# 8 vertex normals

vt 0.1969 0.7940 0.0000
vt 0.7997 0.7940 0.0000
vt 0.7997 0.7803 0.0000
vt 0.1969 0.7803 0.0000
vt 0.3140 0.0000 0.0000
vt 0.8065 -0.0000 0.0000
vt 0.8065 1.0000 0.0000
vt 0.3140 1.0000 0.0000
vt 0.9388 0.0000 0.0000
vt 0.9388 1.0000 0.0000
vt 0.0061 1.0000 0.0000
vt 0.0061 0.0000 0.0000
vt 0.6860 -0.0000 0.0000
vt 0.1935 -0.0000 0.0000
vt 0.3140 -0.0000 0.0000
vt 0.8065 0.0000 0.0000
vt 0.9939 1.0000 0.0000
vt 0.0612 1.0000 0.0000
vt 0.5187 0.1609 0.0000
vt 0.4994 0.1609 0.0000
vt 0.4994 0.9125 0.0000
vt 0.5187 0.9125 0.0000
# 22 texture coords

o Box007
g Box007
usemtl Material__27
s 1
f 41/39/41 42/40/42 43/41/43 44/42/44 
s 4
f 42/43/42 45/44/45 46/45/46 43/46/43 
f 41/47/41 44/48/44 47/49/47 48/50/48 
s 2
f 42/51/42 41/48/41 48/49/48 45/52/45 
f 43/53/43 46/54/46 47/55/47 44/56/44 
s 64
f 46/57/46 45/58/45 48/59/48 47/60/47 
# 6 polygons

