# Blender v2.93.5 OBJ File: ''
# www.blender.org
mtllib plintus.mtl
o Cube
v 0.262667 0.040277 -7.371942
v 0.262667 -0.040277 -7.371942
v 0.262667 0.040277 7.371942
v 0.262667 -0.040277 7.371942
v -0.262667 0.040277 -7.371942
v -0.262667 -0.040277 -7.371942
v -0.262667 0.040277 7.371942
v -0.262667 -0.040277 7.371942
v 0.259487 0.051937 -7.371942
v 0.259487 0.051937 7.371942
v 0.253127 0.066776 -7.371942
v 0.253127 0.066776 7.371942
v 0.237228 0.084795 -7.371942
v 0.237228 0.084795 7.371942
v 0.210729 0.095395 -7.371942
v 0.210729 0.095395 7.371942
v 0.173631 0.105994 -7.371942
v 0.173631 0.105994 7.371942
v 0.133352 0.120834 -7.371942
v 0.133352 0.120834 7.371942
v 0.093074 0.138853 -7.371942
v 0.093074 0.138853 7.371942
v 0.062335 0.165352 -7.371942
v 0.062335 0.165352 7.371942
v 0.047496 0.185491 -7.371942
v 0.047496 0.185491 7.371942
v 0.019937 0.224710 -7.371942
v 0.019937 0.224710 7.371942
v -0.015042 0.260748 -7.371942
v -0.015042 0.260748 7.371942
v -0.082879 0.307386 -7.371942
v -0.082879 0.307386 7.371942
v -0.111498 0.341305 -7.371942
v -0.111498 0.341305 7.371942
v -0.124218 0.385823 -7.371942
v -0.124218 0.385823 7.371942
v -0.141177 0.413382 -7.371942
v -0.141177 0.413382 7.371942
v -0.184635 0.445181 -7.371942
v -0.184635 0.445181 7.371942
v -0.231273 0.465320 -7.371942
v -0.231273 0.465320 7.371942
v -0.264132 0.466380 -7.371942
v -0.264132 0.466380 7.371942
vt 0.625000 0.500000
vt 0.875000 0.500000
vt 0.875000 0.750000
vt 0.625000 0.750000
vt 0.375000 0.750000
vt 0.625000 1.000000
vt 0.375000 1.000000
vt 0.375000 0.000000
vt 0.625000 0.000000
vt 0.625000 0.250000
vt 0.375000 0.250000
vt 0.125000 0.500000
vt 0.375000 0.500000
vt 0.125000 0.750000
vt 0.625000 0.500000
vt 0.625000 0.750000
vt 0.625000 0.500000
vt 0.625000 0.750000
vt 0.625000 0.500000
vt 0.625000 0.750000
vt 0.625000 0.500000
vt 0.625000 0.750000
vt 0.625000 0.500000
vt 0.625000 0.750000
vt 0.625000 0.500000
vt 0.625000 0.750000
vt 0.625000 0.500000
vt 0.625000 0.750000
vt 0.625000 0.500000
vt 0.625000 0.750000
vt 0.625000 0.500000
vt 0.625000 0.750000
vt 0.625000 0.500000
vt 0.625000 0.750000
vt 0.625000 0.500000
vt 0.625000 0.750000
vt 0.625000 0.500000
vt 0.625000 0.750000
vt 0.625000 0.500000
vt 0.625000 0.750000
vt 0.625000 0.500000
vt 0.625000 0.750000
vt 0.625000 0.500000
vt 0.625000 0.750000
vt 0.625000 0.500000
vt 0.625000 0.750000
vt 0.625000 0.500000
vt 0.625000 0.750000
vt 0.625000 0.500000
vt 0.625000 0.750000
vt 0.000000 0.000000
vt 0.000000 0.000000
vt 0.000000 0.000000
vt 0.000000 0.000000
vt 0.000000 0.000000
vt 0.000000 0.000000
vt 0.000000 0.000000
vt 0.000000 0.000000
vt 0.000000 0.000000
vt 0.000000 0.000000
vt 0.000000 0.000000
vt 0.000000 0.000000
vt 0.000000 0.000000
vt 0.000000 0.000000
vt 0.000000 0.000000
vt 0.000000 0.000000
vt 0.000000 0.000000
vt 0.000000 0.000000
vt 0.000000 0.000000
vt 0.000000 0.000000
vt 0.000000 0.000000
vt 0.000000 0.000000
vt 0.000000 0.000000
vt 0.000000 0.000000
vt 0.000000 0.000000
vt 0.000000 0.000000
vt 0.000000 0.000000
vt 0.000000 0.000000
vt 0.000000 0.000000
vt 0.000000 0.000000
vt 0.000000 0.000000
vt 0.000000 0.000000
vt 0.000000 0.000000
vt 0.000000 0.000000
vt 0.000000 0.000000
vt 0.000000 0.000000
vt 0.000000 0.000000
vt 0.000000 0.000000
vt 0.000000 0.000000
vt 0.000000 0.000000
vn 0.6621 0.4256 -0.6168
vn -0.6666 0.3321 -0.6673
vn -0.6666 0.3321 0.6673
vn 0.6621 0.4256 0.6168
vn 0.5773 -0.5773 0.5773
vn -0.5773 -0.5773 0.5773
vn -0.5773 -0.5773 -0.5773
vn 0.5773 -0.5773 -0.5773
vn 0.6818 0.2378 -0.6918
vn 0.6818 0.2378 0.6918
vn 0.6250 0.3953 -0.6731
vn 0.6250 0.3953 0.6731
vn 0.4337 0.6150 -0.6585
vn 0.4337 0.6150 0.6585
vn 0.2323 0.6796 -0.6958
vn 0.2323 0.6796 0.6958
vn 0.2221 0.6800 -0.6988
vn 0.2221 0.6800 0.6988
vn 0.2695 0.6618 -0.6995
vn 0.2695 0.6618 0.6995
vn 0.3952 0.6220 -0.6759
vn 0.3952 0.6220 0.6759
vn 0.5360 0.4965 -0.6828
vn 0.5360 0.4965 0.6828
vn 0.5760 0.4145 -0.7046
vn 0.5760 0.4145 0.7046
vn 0.5577 0.4617 -0.6897
vn 0.5577 0.4617 0.6897
vn 0.4697 0.5562 -0.6855
vn 0.4697 0.5562 0.6855
vn 0.4933 0.5445 -0.6782
vn 0.4933 0.5445 0.6782
vn 0.6608 0.3521 -0.6628
vn 0.6608 0.3521 0.6628
vn 0.6729 0.2965 -0.6777
vn 0.6729 0.2965 0.6777
vn 0.5480 0.5058 -0.6662
vn 0.5480 0.5058 0.6662
vn 0.3628 0.6341 -0.6828
vn 0.3628 0.6341 0.6828
vn 0.1625 0.7267 -0.6674
vn 0.1625 0.7267 0.6674
vn -0.5699 0.5865 -0.5755
vn -0.5699 0.5865 0.5755
usemtl Material
s 1
f 1/1/1 5/2/2 7/3/3 3/4/4
f 4/5/5 3/4/4 7/6/3 8/7/6
f 8/8/6 7/9/3 5/10/2 6/11/7
f 6/12/7 2/13/8 4/5/5 8/14/6
f 2/13/8 1/1/1 3/4/4 4/5/5
f 6/11/7 5/10/2 1/1/1 2/13/8
f 3/4/4 1/1/1 9/15/9 10/16/10
f 10/16/10 9/15/9 11/17/11 12/18/12
f 12/18/12 11/17/11 13/19/13 14/20/14
f 14/20/14 13/19/13 15/21/15 16/22/16
f 16/22/16 15/21/15 17/23/17 18/24/18
f 18/24/18 17/23/17 19/25/19 20/26/20
f 20/26/20 19/25/19 21/27/21 22/28/22
f 22/28/22 21/27/21 23/29/23 24/30/24
f 24/30/24 23/29/23 25/31/25 26/32/26
f 26/32/26 25/31/25 27/33/27 28/34/28
f 28/34/28 27/33/27 29/35/29 30/36/30
f 30/36/30 29/35/29 31/37/31 32/38/32
f 32/38/32 31/37/31 33/39/33 34/40/34
f 34/40/34 33/39/33 35/41/35 36/42/36
f 36/42/36 35/41/35 37/43/37 38/44/38
f 38/44/38 37/43/37 39/45/39 40/46/40
f 40/46/40 39/45/39 41/47/41 42/48/42
f 42/48/42 41/47/41 43/49/43 44/50/44
f 5/2/2 7/3/3 44/50/44 43/49/43
f 5/51/2 43/52/43 41/53/41 39/54/39 37/55/37 35/56/35 33/57/33 31/58/31 29/59/29 27/60/27 25/61/25 23/62/23 21/63/21 19/64/19 17/65/17 15/66/15 13/67/13 11/68/11 9/69/9 1/70/1
f 3/71/4 10/72/10 12/73/12 14/74/14 16/75/16 18/76/18 20/77/20 22/78/22 24/79/24 26/80/26 28/81/28 30/82/30 32/83/32 34/84/34 36/85/36 38/86/38 40/87/40 42/88/42 44/89/44 7/90/3
