# Blender v2.93.5 OBJ File: 'podocon.blend'
# www.blender.org
mtllib podocon.mtl
o Cube
v 0.500000 0.100000 -2.000000
v 0.500000 -0.100000 -2.000000
v 0.500000 0.100000 2.000000
v 0.500000 -0.100000 2.000000
v -0.500000 0.100000 -2.000000
v -0.500000 -0.100000 -2.000000
v -0.500000 0.100000 2.000000
v -0.500000 -0.100000 2.000000
v 0.525996 0.109108 -1.993305
v 0.525996 -0.090892 -1.993305
v 0.525996 0.109108 2.006695
v 0.525996 -0.090892 2.006695
v 0.555682 0.131366 -1.982820
v 0.555682 -0.068634 -1.982820
v 0.555682 0.131366 2.017180
v 0.555682 -0.068634 2.017180
v 0.585128 0.157986 -1.971333
v 0.585128 -0.042014 -1.971333
v 0.585128 0.157986 2.028667
v 0.585128 -0.042014 2.028667
v 0.470293 0.121334 -2.033108
v 0.470293 -0.078666 -2.033108
v -0.529707 0.121334 -2.033108
v -0.529707 -0.078666 -2.033108
v 0.496289 0.130442 -2.026412
v 0.496289 -0.069558 -2.026412
v 0.525975 0.152700 -2.015928
v 0.472157 0.145832 -2.073438
v 0.472157 -0.054168 -2.073438
v -0.527843 0.145832 -2.073438
v -0.527843 -0.054168 -2.073438
v 0.498153 0.154940 -2.066743
v 0.498153 -0.045060 -2.066743
v 0.504431 0.122834 2.023214
v 0.504431 -0.077166 2.023214
v -0.495569 0.122834 2.023214
v -0.495569 -0.077166 2.023214
v 0.530427 0.131942 2.029909
v 0.530427 -0.068058 2.029909
v 0.560113 0.154200 2.040394
v 0.560113 -0.045800 2.040394
v 0.508382 0.151983 2.046652
v 0.508382 -0.048017 2.046652
v -0.491618 0.151983 2.046652
v -0.491618 -0.048017 2.046652
v 0.534378 0.161091 2.053347
v 0.534378 -0.038909 2.053347
vt 0.625000 0.500000
vt 0.875000 0.500000
vt 0.875000 0.750000
vt 0.625000 0.750000
vt 0.375000 0.750000
vt 0.375000 0.750000
vt 0.375000 0.750000
vt 0.375000 0.750000
vt 0.375000 0.000000
vt 0.625000 0.000000
vt 0.625000 0.250000
vt 0.375000 0.250000
vt 0.125000 0.500000
vt 0.375000 0.500000
vt 0.375000 0.750000
vt 0.125000 0.750000
vt 0.375000 0.500000
vt 0.375000 0.500000
vt 0.375000 0.500000
vt 0.625000 0.500000
vt 0.625000 0.750000
vt 0.625000 0.750000
vt 0.625000 0.500000
vt 0.375000 0.000000
vt 0.625000 0.000000
vt 0.625000 0.750000
vt 0.625000 0.500000
vt 0.375000 0.500000
vt 0.875000 0.750000
vt 0.625000 0.750000
vt 0.375000 0.500000
vt 0.375000 0.750000
vt 0.625000 0.500000
vt 0.625000 0.500000
vt 0.625000 0.500000
vt 0.625000 0.500000
vt 0.625000 0.250000
vt 0.375000 0.250000
vt 0.000000 0.000000
vt 0.000000 0.000000
vt 0.000000 0.000000
vt 0.000000 0.000000
vt 0.125000 0.500000
vt 0.875000 0.500000
vt 0.375000 0.250000
vt 0.625000 0.250000
vt 0.375000 0.500000
vt 0.375000 0.500000
vt 0.125000 0.500000
vt 0.875000 0.500000
vt 0.000000 0.000000
vt 0.000000 0.000000
vt 0.000000 0.000000
vt 0.000000 0.000000
vt 0.000000 0.000000
vt 0.125000 0.750000
vt 0.375000 0.750000
vt 0.375000 0.750000
vt 0.125000 0.750000
vt 0.625000 0.750000
vt 0.625000 0.750000
vt 0.625000 0.750000
vt 0.375000 0.750000
vt 0.625000 1.000000
vt 0.375000 1.000000
vt 0.625000 0.750000
vt 0.375000 0.000000
vt 0.625000 0.000000
vt 0.875000 0.750000
vn 0.0000 1.0000 0.0000
vn 0.3052 -0.7074 0.6375
vn -1.0000 0.0000 0.0000
vn 0.0000 -1.0000 0.0000
vn 0.3307 -0.9438 0.0000
vn 0.3873 -0.5768 -0.7192
vn -0.5999 0.8001 0.0000
vn -0.3307 0.9438 0.0000
vn -0.9823 0.0000 0.1875
vn -0.6706 0.7418 0.0000
vn 0.3330 0.0000 -0.9429
vn 0.5999 -0.8001 0.0000
vn 0.0000 0.7129 -0.7012
vn 1.0000 0.0000 0.0000
vn 0.3634 0.0000 -0.9316
vn 0.6706 -0.7418 0.0000
vn -0.3969 0.7925 0.4630
vn -0.7443 0.0000 0.6678
vn -0.7390 0.0000 0.6737
vn 0.0000 -0.8406 -0.5417
vn 0.7443 0.0000 -0.6678
vn 0.0000 0.8406 0.5417
vn -0.3873 0.5768 0.7192
vn 0.0000 0.0000 -1.0000
vn 0.2494 0.0000 -0.9684
vn 0.9989 0.0000 0.0462
vn -0.9989 0.0000 -0.0462
vn 0.0000 -0.8547 -0.5191
vn 0.3969 -0.7925 -0.4630
vn 0.0000 0.8547 0.5191
vn 0.5455 -0.5917 -0.5935
vn 0.2019 -0.9673 -0.1532
vn 0.5949 -0.4521 -0.6646
vn 0.0000 -0.6266 0.7793
vn -0.0197 0.6281 -0.7779
vn 0.2080 -0.6299 0.7483
vn 0.0733 -0.7180 0.6922
vn 0.3894 -0.6927 0.6070
vn -0.0733 0.7180 -0.6922
vn 0.0000 -0.7129 0.7012
vn 0.0000 0.0000 1.0000
vn -0.2494 0.0000 0.9684
vn -0.3001 0.6854 -0.6635
vn -0.9861 0.0000 0.1662
vn 0.0197 -0.6281 0.7779
vn 0.9609 0.0825 -0.2645
vn 0.0000 0.6266 -0.7793
vn 0.4373 0.0000 0.8993
usemtl Material
s off
f 1/1/1 5/2/1 7/3/1 3/4/1
f 12/5/2 16/6/2 41/7/2 39/8/2
f 8/9/3 7/10/3 5/11/3 6/12/3
f 6/13/4 2/14/4 4/15/4 8/16/4
f 4/15/5 2/14/5 10/17/5 12/5/5
f 10/17/6 2/14/6 22/18/6 26/19/6
f 9/20/7 11/21/7 15/22/7 13/23/7
f 1/1/8 3/4/8 11/21/8 9/20/8
f 7/10/9 8/9/9 37/24/9 36/25/9
f 13/23/10 15/22/10 19/26/10 17/27/10
f 10/17/11 9/20/11 13/23/11 14/28/11
f 12/5/12 10/17/12 14/28/12 16/6/12
f 3/4/13 7/3/13 36/29/13 34/30/13
f 18/31/14 17/27/14 19/26/14 20/32/14
f 14/28/15 13/23/15 17/27/15 18/31/15
f 16/6/16 14/28/16 18/31/16 20/32/16
f 21/33/17 25/34/17 32/35/17 28/36/17
f 6/12/18 5/11/18 23/37/18 24/38/18
f 17/39/19 32/40/19 33/41/19 18/42/19
f 2/14/20 6/13/20 24/43/20 22/18/20
f 9/20/21 10/17/21 26/19/21 25/34/21
f 5/2/22 1/1/22 21/33/22 23/44/22
f 1/1/23 9/20/23 25/34/23 21/33/23
f 31/45/24 30/46/24 28/36/24 29/47/24
f 29/47/25 28/36/25 32/35/25 33/48/25
f 25/34/26 26/19/26 33/48/26 32/35/26
f 24/38/27 23/37/27 30/46/27 31/45/27
f 22/18/28 24/43/28 31/49/28 29/47/28
f 26/19/29 22/18/29 29/47/29 33/48/29
f 23/44/30 21/33/30 28/36/30 30/50/30
f 18/42/31 14/51/31 10/52/31 26/53/31 33/41/31
f 32/40/32 17/39/32 27/54/32
f 13/23/33 9/20/33 25/55/33 32/40/33 27/54/33 17/39/33
f 37/56/34 35/57/34 43/58/34 45/59/34
f 38/60/35 34/30/35 42/61/35 46/62/35
f 39/8/36 41/7/36 47/63/36
f 4/15/37 12/5/37 39/8/37 35/57/37
f 16/6/38 20/32/38 41/7/38
f 11/21/39 3/4/39 34/30/39 38/60/39
f 8/16/40 4/15/40 35/57/40 37/56/40
f 43/58/41 42/61/41 44/64/41 45/65/41
f 42/61/42 43/58/42 47/63/42 46/62/42
f 15/22/43 11/21/43 38/60/43 46/62/43 40/66/43 19/26/43
f 36/25/44 37/24/44 45/67/44 44/68/44
f 35/57/45 39/8/45 47/63/45 43/58/45
f 11/21/46 46/62/46 38/60/46
f 34/30/47 36/29/47 44/69/47 42/61/47
f 20/32/48 19/26/48 40/66/48 46/62/48 47/63/48 41/7/48
