# WaveFront *.obj file (generated by Autodesk ATF)

mtllib Деталь1.6.mtl

g Твердое тело1

v -5.000000 0.000000 -0.500000
v -5.000000 0.000000 0.000000
v -5.000000 11.000000 -0.500000
v -5.000000 11.000000 0.000000
v -4.500000 0.500000 -0.500000
v -4.500000 0.500000 -0.400000
v -4.500000 10.500000 -0.500000
v -4.500000 10.500000 -0.400000
v -0.500000 0.500000 -0.500000
v -0.500000 0.500000 -0.400000
v -0.500000 10.500000 -0.500000
v -0.500000 10.500000 -0.400000
v 0.000000 0.000000 -0.500000
v 0.000000 0.000000 0.000000
v 0.000000 11.000000 -0.500000
v 0.000000 11.000000 0.000000
vt 0.000000 0.000000 0.000000
vt 1.100000 0.000000 0.000000
vt 1.100000 0.050000 0.000000
vt 0.000000 0.050000 0.000000
vt 0.000000 0.000000 0.000000
vt 0.500000 0.000000 0.000000
vt 0.500000 0.050000 0.000000
vt 0.000000 0.050000 0.000000
vt 0.000000 0.000000 0.000000
vt 1.100000 0.000000 0.000000
vt 1.100000 0.050000 0.000000
vt 0.000000 0.050000 0.000000
vt 0.000000 0.000000 0.000000
vt 0.500000 0.000000 0.000000
vt 0.500000 0.050000 0.000000
vt 0.000000 0.050000 0.000000
vt -0.250000 -0.550000 0.000000
vt 0.250000 -0.550000 0.000000
vt 0.250000 0.550000 0.000000
vt -0.250000 0.550000 0.000000
vt 0.200000 0.500000 0.000000
vt 0.200000 -0.500000 0.000000
vt -0.200000 -0.500000 0.000000
vt -0.200000 0.500000 0.000000
vt -0.250000 -0.550000 0.000000
vt 0.250000 -0.550000 0.000000
vt 0.250000 0.550000 0.000000
vt -0.250000 0.550000 0.000000
vt -1.000000 0.000000 0.000000
vt -0.000000 0.000000 0.000000
vt -0.000000 0.010000 0.000000
vt -1.000000 0.010000 0.000000
vt -0.400000 0.000000 0.000000
vt -0.000000 0.000000 0.000000
vt -0.000000 0.010000 0.000000
vt -0.400000 0.010000 0.000000
vt -1.000000 0.000000 0.000000
vt -0.000000 0.000000 0.000000
vt -0.000000 0.010000 0.000000
vt -1.000000 0.010000 0.000000
vt -0.400000 0.000000 0.000000
vt -0.000000 0.000000 0.000000
vt -0.000000 0.010000 0.000000
vt -0.400000 0.010000 0.000000
vt -0.200000 -0.500000 0.000000
vt 0.200000 -0.500000 0.000000
vt 0.200000 0.500000 0.000000
vt -0.200000 0.500000 0.000000
vn 0.100000 0.000000 0.000000
vn 0.100000 0.000000 0.000000
vn 0.100000 0.000000 0.000000
vn 0.100000 0.000000 0.000000
vn 0.000000 0.100000 0.000000
vn 0.000000 0.100000 0.000000
vn 0.000000 0.100000 0.000000
vn 0.000000 0.100000 0.000000
vn -0.100000 0.000000 0.000000
vn -0.100000 0.000000 0.000000
vn -0.100000 0.000000 0.000000
vn -0.100000 0.000000 0.000000
vn 0.000000 -0.100000 0.000000
vn 0.000000 -0.100000 0.000000
vn 0.000000 -0.100000 0.000000
vn 0.000000 -0.100000 0.000000
vn 0.000000 0.000000 0.100000
vn 0.000000 0.000000 0.100000
vn 0.000000 0.000000 0.100000
vn 0.000000 0.000000 0.100000
vn 0.000000 0.000000 -0.100000
vn 0.000000 0.000000 -0.100000
vn 0.000000 0.000000 -0.100000
vn 0.000000 0.000000 -0.100000
vn 0.000000 0.000000 -0.100000
vn 0.000000 0.000000 -0.100000
vn 0.000000 0.000000 -0.100000
vn 0.000000 0.000000 -0.100000
vn 0.100000 0.000000 0.000000
vn 0.100000 0.000000 0.000000
vn 0.100000 0.000000 0.000000
vn 0.100000 0.000000 0.000000
vn 0.000000 -0.100000 0.000000
vn 0.000000 -0.100000 0.000000
vn 0.000000 -0.100000 0.000000
vn 0.000000 -0.100000 0.000000
vn -0.100000 0.000000 0.000000
vn -0.100000 0.000000 0.000000
vn -0.100000 0.000000 0.000000
vn -0.100000 0.000000 0.000000
vn 0.000000 0.100000 0.000000
vn 0.000000 0.100000 0.000000
vn 0.000000 0.100000 0.000000
vn 0.000000 0.100000 0.000000
vn 0.000000 0.000000 -0.100000
vn 0.000000 0.000000 -0.100000
vn 0.000000 0.000000 -0.100000
vn 0.000000 0.000000 -0.100000
usemtl 191,191,191
f 16/1/1 14/2/2 15/4/4
f 15/4/4 14/2/2 13/3/3
f 4/5/5 16/6/6 3/8/8
f 3/8/8 16/6/6 15/7/7
f 2/9/9 4/10/10 1/12/12
f 1/12/12 4/10/10 3/11/11
f 14/13/13 2/14/14 13/16/16
f 13/16/16 2/14/14 1/15/15
f 2/17/17 14/18/18 4/20/20
f 4/20/20 14/18/18 16/19/19
f 5/22/22 1/26/26 7/21/21
f 7/21/21 1/26/26 3/27/27
f 7/21/21 3/27/27 15/28/28
f 5/22/22 9/23/23 1/26/26
f 1/26/26 9/23/23 13/25/25
f 13/25/25 9/23/23 11/24/24
f 13/25/25 11/24/24 15/28/28
f 15/28/28 11/24/24 7/21/21
f 5/29/29 7/30/30 6/32/32
f 6/32/32 7/30/30 8/31/31
f 7/33/33 11/34/34 8/36/36
f 8/36/36 11/34/34 12/35/35
f 11/37/37 9/38/38 12/40/40
f 12/40/40 9/38/38 10/39/39
f 9/41/41 5/42/42 10/44/44
f 10/44/44 5/42/42 6/43/43
f 10/45/45 6/46/46 12/48/48
f 12/48/48 6/46/46 8/47/47

# 16 vertices
# 48 texture params
# 48 normals
# 28 facets

# 1 groups
